<?xml version="1.0" encoding="utf-8"?>
<svg viewBox="43 30 408 70"
  xmlns="http://www.w3.org/2000/svg">
  <g transform="matrix(0.406173, 0, 0, 0.406173, -222.411926, 548.25647)" style="">
    <path d="M 743.522 -1113.787 C 721.666 -1121.105 698.598 -1136.902 691.437 -1180.755 C 693.451 -1180.311 695.514 -1179.903 697.637 -1179.529 C 698.772 -1165.84 706.342 -1159.064 720.354 -1159.203 C 738.045 -1159.377 733.373 -1167.601 739.259 -1171.227 C 742.274 -1173.085 744.825 -1173.085 747.839 -1171.227 C 753.726 -1167.601 749.053 -1159.377 766.745 -1159.203 C 779.723 -1159.075 787.176 -1164.879 789.106 -1176.615 C 789.845 -1175.816 790.61 -1175.041 791.4 -1174.29 C 790.503 -1172.993 789.609 -1171.707 788.725 -1170.445 C 773.497 -1148.788 764.135 -1134.465 760.813 -1127.994 C 759.519 -1125.406 759.303 -1124.543 759.26 -1121.954 C 759.26 -1121.539 759.266 -1121.165 759.281 -1120.82 C 754.117 -1117.802 748.785 -1115.549 743.522 -1113.787 Z M 745.177 -1176.272 C 760.246 -1176.272 772.629 -1176.858 783.397 -1178.157 C 760.428 -1175.18 734.038 -1175.039 710.747 -1177.736 C 720.616 -1176.731 731.845 -1176.272 745.177 -1176.272 Z" style="fill-opacity: 1; fill-rule: evenodd; stroke: none;" id="path12" />
    <path d="M 725.521 -1263.976 C 740.95 -1254.2 749.382 -1254.056 761.761 -1263.401 C 764.811 -1265.557 768.219 -1266.707 770.731 -1266.419 C 775.97 -1265.926 782.005 -1256.839 786.9 -1242.531 C 780.691 -1234.855 776.69 -1225.319 775.863 -1214.89 C 761.003 -1212.815 713.584 -1213.826 703.813 -1216.246 C 697.713 -1217.827 696.995 -1218.546 696.995 -1222.572 C 697.175 -1228.753 703.096 -1250.462 706.863 -1257.506 C 708.298 -1260.525 710.989 -1264.119 712.604 -1265.557 C 716.551 -1269.007 717.806 -1268.864 725.521 -1263.976 Z" style="" />
    <path d="M 696.379 -1213.05 C 703.735 -1208.385 723.11 -1204.976 744.459 -1204.976 C 757.75 -1204.976 767.713 -1205.608 775.84 -1207.097 C 776.633 -1196.329 780.807 -1186.5 787.305 -1178.67 C 775.639 -1177.011 762.102 -1176.272 745.177 -1176.272 C 716.293 -1176.272 697.276 -1178.425 680.592 -1183.628 C 654.04 -1191.701 653.322 -1203.183 678.797 -1211.973 C 691.894 -1216.458 691.356 -1216.279 696.379 -1213.05 Z" stroke="none" style="" />
    <path d="M 867.838 -1210.76 C 867.838 -1187.456 848.947 -1168.565 825.643 -1168.565 C 802.339 -1168.565 783.447 -1187.456 783.447 -1210.76 C 783.447 -1234.064 802.339 -1252.956 825.643 -1252.956 C 848.947 -1252.956 867.838 -1234.064 867.838 -1210.76 Z M 825.643 -1240.809 C 809.048 -1240.809 795.595 -1227.355 795.595 -1210.76 C 795.595 -1194.165 809.048 -1180.712 825.643 -1180.712 C 842.238 -1180.712 855.691 -1194.165 855.691 -1210.76 C 855.691 -1227.355 842.238 -1240.809 825.643 -1240.809 Z" />
    <path d="M 796.994 -1148.01 C 793.218 -1140.063 786.568 -1126.904 784.37 -1122.987 C 781.834 -1118.45 780.763 -1117.126 778.763 -1116.027 C 777.41 -1115.266 776.988 -1115.181 774.846 -1115.181 C 772.789 -1115.21 772.225 -1115.322 770.957 -1115.999 C 768.843 -1117.069 767.097 -1118.788 766.195 -1120.648 C 765.547 -1121.916 765.406 -1122.592 765.406 -1124.198 C 765.434 -1125.889 765.575 -1126.453 766.42 -1128.143 C 768.59 -1132.371 774.705 -1141.726 784.652 -1155.872 C 790.964 -1164.889 798.121 -1175.794 799.08 -1177.907 C 799.087 -1177.924 799.094 -1177.94 799.101 -1177.956 C 802.159 -1175.479 805.571 -1173.42 809.248 -1171.868 C 807.382 -1168.821 800.896 -1156.246 796.994 -1148.01 Z" stroke="none" style=""/>
    <path d="M 827.07 -1210.811 C 826.919 -1210.595 826.791 -1210.417 826.668 -1210.238 C 824.704 -1207.348 822.741 -1204.458 820.779 -1201.569 C 818.954 -1198.881 817.126 -1196.195 815.297 -1193.511 C 815.235 -1193.426 815.141 -1193.37 815.036 -1193.359 C 812.453 -1193.382 809.872 -1193.409 807.29 -1193.443 C 807.262 -1193.443 807.232 -1193.452 807.176 -1193.46 C 807.197 -1193.514 807.221 -1193.567 807.248 -1193.618 C 809.05 -1196.41 810.851 -1199.203 812.652 -1201.994 C 814.25 -1204.468 815.848 -1206.941 817.448 -1209.413 C 819.221 -1212.161 820.993 -1214.91 822.763 -1217.661 C 823.025 -1218.067 823.297 -1218.465 823.545 -1218.878 C 823.608 -1218.989 823.628 -1219.12 823.598 -1219.244 C 823.121 -1220.765 822.634 -1222.283 822.149 -1223.8 C 821.94 -1224.45 821.723 -1225.096 821.528 -1225.75 C 821.465 -1225.96 821.361 -1226.024 821.146 -1226.023 C 819.524 -1226.016 817.911 -1226.018 816.293 -1226.018 C 815.986 -1226.018 815.985 -1226.018 815.985 -1226.322 C 815.985 -1228.311 815.985 -1230.299 815.979 -1232.289 C 815.979 -1232.51 816.052 -1232.56 816.26 -1232.56 C 819.517 -1232.554 822.775 -1232.554 826.033 -1232.56 C 826.19 -1232.58 826.336 -1232.48 826.376 -1232.328 C 828.094 -1228.007 829.812 -1223.687 831.53 -1219.37 C 833.535 -1214.334 835.539 -1209.298 837.543 -1204.261 C 838.165 -1202.698 838.792 -1201.136 839.408 -1199.569 C 839.481 -1199.378 839.558 -1199.341 839.751 -1199.401 C 841.458 -1199.929 843.169 -1200.442 844.876 -1200.971 C 845.091 -1201.038 845.169 -1200.993 845.236 -1200.78 C 845.818 -1198.95 846.412 -1197.124 847.001 -1195.297 C 847.021 -1195.234 847.037 -1195.17 847.061 -1195.082 C 846.938 -1195.037 846.824 -1194.987 846.706 -1194.954 C 842.825 -1193.724 838.946 -1192.493 835.069 -1191.262 C 834.884 -1191.204 834.829 -1191.267 834.767 -1191.423 C 833.583 -1194.423 832.396 -1197.423 831.206 -1200.421 C 830.042 -1203.356 828.878 -1206.292 827.713 -1209.228 C 827.538 -1209.669 827.366 -1210.112 827.192 -1210.553 C 827.164 -1210.628 827.126 -1210.694 827.07 -1210.811 Z" fill="#fa7e14" style=""/>
  </g>
  <path d="M 160.944 55.871 Q 159.605 55.709 156.235 55.424 Q 154.367 55.343 153.23 55.343 Q 151.769 55.343 150.47 55.424 L 150.47 49.131 L 151.485 49.131 Q 154.814 49.131 158.387 49.578 Q 159.523 49.74 160.944 50.025 L 160.944 55.871 Z M 154.245 69.147 Q 154.245 68.295 154.124 67.909 Q 154.002 67.523 153.718 67.381 Q 153.433 67.239 152.743 67.158 L 147.749 66.549 Q 143.324 66.062 141.781 63.666 Q 141.091 62.651 140.847 61.19 Q 140.604 59.728 140.604 57.617 Q 140.604 53.11 142.918 51.121 Q 144.786 49.497 148.764 49.213 L 148.764 57.373 Q 148.764 57.901 148.805 58.266 Q 148.846 58.632 148.967 58.835 Q 149.089 59.078 149.373 59.18 Q 149.658 59.281 150.226 59.322 L 155.829 60.012 Q 157.575 60.256 158.671 60.621 Q 159.767 60.987 160.538 61.758 Q 162.365 63.666 162.365 68.538 Q 162.365 73.694 160.092 75.765 Q 159.077 76.699 157.636 77.125 Q 156.194 77.551 154.245 77.673 Z M 152.094 77.714 Q 148.034 77.714 144.542 77.348 Q 142.471 77.145 141.416 76.942 L 141.416 71.015 Q 143.811 71.218 146.897 71.421 Q 148.846 71.502 149.658 71.502 Q 151.85 71.502 152.54 71.38 L 152.54 77.714 L 152.094 77.714 Z" style="white-space: pre;" />
  <path d="M 166.528 49.456 L 174.648 49.456 L 174.648 77.389 L 166.528 77.389 Z M 176.353 49.456 L 186.666 49.456 L 186.666 55.668 L 176.353 55.668 Z M 176.353 60.175 L 184.758 60.175 L 184.758 66.386 L 176.353 66.386 Z M 176.353 71.177 L 186.666 71.177 L 186.666 77.389 L 176.353 77.389 Z" style="white-space: pre;" />
  <path d="M 191.528 49.456 L 199.648 49.456 L 199.648 77.389 L 191.528 77.389 Z M 202.977 67.889 L 201.353 67.889 L 201.353 61.677 L 202.734 61.677 Q 203.992 61.677 204.642 61.575 Q 205.292 61.474 205.657 61.19 Q 205.982 60.905 206.104 60.337 Q 206.225 59.769 206.225 58.672 Q 206.225 57.576 206.104 56.987 Q 205.982 56.399 205.657 56.115 Q 205.332 55.83 204.703 55.749 Q 204.074 55.668 202.734 55.668 L 201.353 55.668 L 201.353 49.456 L 205.535 49.456 Q 208.418 49.456 210.204 50.025 Q 211.991 50.593 212.965 51.77 Q 213.858 52.867 214.163 54.491 Q 214.467 56.115 214.467 58.672 Q 214.467 61.961 213.858 63.747 Q 213.006 66.021 210.854 66.955 L 215.076 77.389 L 206.55 77.389 Z" style="white-space: pre;" />
  <path d="M 224.15 76.212 Q 223.622 74.588 223.216 73.045 L 221.917 68.579 Q 221.267 66.386 220.902 65.29 Q 220.577 64.072 220.374 63.463 L 216.233 49.456 L 224.515 49.456 L 232.107 77.389 L 224.515 77.389 Z M 230.524 65.006 L 234.625 49.456 L 242.745 49.456 L 238.603 63.463 L 237.101 68.579 Q 236.37 70.934 235.761 73.045 Q 235.355 74.588 234.828 76.212 L 234.462 77.389 L 233.894 77.389 Z" style="white-space: pre;" />
  <path d="M 245.575 49.456 L 253.695 49.456 L 253.695 77.389 L 245.575 77.389 Z M 255.4 49.456 L 265.713 49.456 L 265.713 55.668 L 255.4 55.668 Z M 255.4 60.175 L 263.804 60.175 L 263.804 66.386 L 255.4 66.386 Z M 255.4 71.177 L 265.713 71.177 L 265.713 77.389 L 255.4 77.389 Z" style="white-space: pre;" />
  <path d="M 270.575 49.456 L 278.695 49.456 L 278.695 77.389 L 270.575 77.389 Z M 282.024 67.889 L 280.4 67.889 L 280.4 61.677 L 281.781 61.677 Q 283.039 61.677 283.689 61.575 Q 284.338 61.474 284.704 61.19 Q 285.029 60.905 285.15 60.337 Q 285.272 59.769 285.272 58.672 Q 285.272 57.576 285.15 56.987 Q 285.029 56.399 284.704 56.115 Q 284.379 55.83 283.75 55.749 Q 283.12 55.668 281.781 55.668 L 280.4 55.668 L 280.4 49.456 L 284.582 49.456 Q 287.465 49.456 289.251 50.025 Q 291.037 50.593 292.012 51.77 Q 292.905 52.867 293.21 54.491 Q 293.514 56.115 293.514 58.672 Q 293.514 61.961 292.905 63.747 Q 292.052 66.021 289.901 66.955 L 294.123 77.389 L 285.597 77.389 Z" style="white-space: pre;" />
  <path d="M 297.919 49.456 L 306.039 49.456 L 306.039 77.389 L 297.919 77.389 Z M 307.744 70.852 L 316.432 70.852 L 316.432 77.389 L 307.744 77.389 Z" style="white-space: pre;" />
  <path d="M 319.872 49.456 L 327.992 49.456 L 327.992 77.389 L 319.872 77.389 Z M 329.697 49.456 L 340.009 49.456 L 340.009 55.668 L 329.697 55.668 Z M 329.697 60.175 L 338.101 60.175 L 338.101 66.386 L 329.697 66.386 Z M 329.697 71.177 L 340.009 71.177 L 340.009 77.389 L 329.697 77.389 Z" style="white-space: pre;" />
  <path d="M 364.116 55.871 Q 362.776 55.709 359.407 55.424 Q 357.539 55.343 356.402 55.343 Q 354.941 55.343 353.641 55.424 L 353.641 49.131 L 354.656 49.131 Q 357.986 49.131 361.558 49.578 Q 362.695 49.74 364.116 50.025 L 364.116 55.871 Z M 357.417 69.147 Q 357.417 68.295 357.295 67.909 Q 357.174 67.523 356.889 67.381 Q 356.605 67.239 355.915 67.158 L 350.921 66.549 Q 346.496 66.062 344.953 63.666 Q 344.263 62.651 344.019 61.19 Q 343.776 59.728 343.776 57.617 Q 343.776 53.11 346.09 51.121 Q 347.957 49.497 351.936 49.213 L 351.936 57.373 Q 351.936 57.901 351.977 58.266 Q 352.017 58.632 352.139 58.835 Q 352.261 59.078 352.545 59.18 Q 352.829 59.281 353.398 59.322 L 359.001 60.012 Q 360.746 60.256 361.843 60.621 Q 362.939 60.987 363.71 61.758 Q 365.537 63.666 365.537 68.538 Q 365.537 73.694 363.264 75.765 Q 362.249 76.699 360.807 77.125 Q 359.366 77.551 357.417 77.673 Z M 355.265 77.714 Q 351.205 77.714 347.714 77.348 Q 345.643 77.145 344.588 76.942 L 344.588 71.015 Q 346.983 71.218 350.069 71.421 Q 352.017 71.502 352.829 71.502 Q 355.022 71.502 355.712 71.38 L 355.712 77.714 L 355.265 77.714 Z" style="white-space: pre;" />
  <path d="M 388.944 55.871 Q 387.605 55.709 384.235 55.424 Q 382.367 55.343 381.23 55.343 Q 379.769 55.343 378.47 55.424 L 378.47 49.131 L 379.485 49.131 Q 382.814 49.131 386.387 49.578 Q 387.523 49.74 388.944 50.025 L 388.944 55.871 Z M 382.245 69.147 Q 382.245 68.295 382.124 67.909 Q 382.002 67.523 381.718 67.381 Q 381.433 67.239 380.743 67.158 L 375.749 66.549 Q 371.324 66.062 369.781 63.666 Q 369.091 62.651 368.847 61.19 Q 368.604 59.728 368.604 57.617 Q 368.604 53.11 370.918 51.121 Q 372.786 49.497 376.764 49.213 L 376.764 57.373 Q 376.764 57.901 376.805 58.266 Q 376.846 58.632 376.967 58.835 Q 377.089 59.078 377.373 59.18 Q 377.658 59.281 378.226 59.322 L 383.829 60.012 Q 385.575 60.256 386.671 60.621 Q 387.767 60.987 388.538 61.758 Q 390.365 63.666 390.365 68.538 Q 390.365 73.694 388.092 75.765 Q 387.077 76.699 385.636 77.125 Q 384.194 77.551 382.245 77.673 Z M 380.094 77.714 Q 376.034 77.714 372.542 77.348 Q 370.471 77.145 369.416 76.942 L 369.416 71.015 Q 371.811 71.218 374.897 71.421 Q 376.846 71.502 377.658 71.502 Q 379.85 71.502 380.54 71.38 L 380.54 77.714 L 380.094 77.714 Z" style="white-space: pre;" />
  <path d="M 392.499 63.369 Q 391.16 63.207 387.79 62.922 Q 385.922 62.841 384.785 62.841 Q 383.324 62.841 382.025 62.922 L 382.025 56.629 L 383.04 56.629 Q 386.369 56.629 389.942 57.076 Q 391.078 57.238 392.499 57.523 L 392.499 63.369 Z M 385.8 76.645 Q 385.8 75.793 385.679 75.407 Q 385.557 75.021 385.273 74.879 Q 384.988 74.737 384.298 74.656 L 379.304 74.047 Q 374.879 73.56 373.336 71.164 Q 372.646 70.149 372.402 68.688 Q 372.159 67.226 372.159 65.115 Q 372.159 60.608 374.473 58.619 Q 376.341 56.995 380.319 56.711 L 380.319 64.871 Q 380.319 65.399 380.36 65.764 Q 380.401 66.13 380.522 66.333 Q 380.644 66.576 380.928 66.678 Q 381.213 66.779 381.781 66.82 L 387.384 67.51 Q 389.13 67.754 390.226 68.119 Q 391.322 68.485 392.093 69.256 Q 393.92 71.164 393.92 76.036 Q 393.92 81.192 391.647 83.263 Q 390.632 84.197 389.19 84.623 Q 387.749 85.049 385.8 85.171 Z M 383.649 85.212 Q 379.589 85.212 376.097 84.846 Q 374.026 84.643 372.971 84.44 L 372.971 78.513 Q 375.366 78.716 378.452 78.919 Q 380.401 79 381.213 79 Q 383.405 79 384.095 78.878 L 384.095 85.212 L 383.649 85.212 Z" style="fill: rgb(247, 152, 31); white-space: pre;"/>
  <path d="M 398.083 56.954 L 406.203 56.954 L 406.203 84.887 L 398.083 84.887 Z M 407.908 69.987 L 408.883 69.987 Q 410.182 69.987 410.811 69.885 Q 411.441 69.784 411.806 69.418 Q 412.171 69.094 412.273 68.464 Q 412.374 67.835 412.374 66.576 Q 412.374 65.318 412.273 64.689 Q 412.171 64.059 411.806 63.694 Q 411.441 63.369 410.791 63.268 Q 410.141 63.166 408.883 63.166 L 407.908 63.166 L 407.908 56.954 L 411.278 56.954 Q 414.283 56.954 416.17 57.543 Q 418.058 58.132 419.033 59.35 Q 419.967 60.486 420.291 62.212 Q 420.616 63.937 420.616 66.576 Q 420.616 69.094 420.312 70.758 Q 420.007 72.423 419.114 73.56 Q 418.099 74.859 416.211 75.529 Q 414.323 76.199 411.278 76.199 L 407.908 76.199 Z" style="fill: rgb(247, 152, 31); white-space: pre;" />
  <path d="M 430.182 75.671 L 429.817 74.859 L 428.761 72.788 L 427.746 70.636 Q 427.584 70.352 427.34 69.784 L 425.676 66.333 L 421.21 56.954 L 429.492 56.954 L 438.302 75.711 L 438.302 84.887 L 430.182 84.887 Z M 435.42 65.602 L 439.196 56.954 L 447.316 56.954 L 444.149 63.531 L 442.809 66.292 L 440.251 71.611 L 439.236 73.722 Z" style="fill: rgb(247, 152, 31); white-space: pre;"/>
</svg>