<?xml version="1.0" encoding="utf-8"?>
<svg viewBox="0 0 500 500" xmlns="http://www.w3.org/2000/svg">
  <g transform="matrix(2.22513, 0, 0, 2.22513, -1447.42749, 2901.078613)" style="">
    <path d="M 743.522 -1113.787 C 721.666 -1121.105 698.598 -1136.902 691.437 -1180.755 C 693.451 -1180.311 695.514 -1179.903 697.637 -1179.529 C 698.772 -1165.84 706.342 -1159.064 720.354 -1159.203 C 738.045 -1159.377 733.373 -1167.601 739.259 -1171.227 C 742.274 -1173.085 744.825 -1173.085 747.839 -1171.227 C 753.726 -1167.601 749.053 -1159.377 766.745 -1159.203 C 779.723 -1159.075 787.176 -1164.879 789.106 -1176.615 C 789.845 -1175.816 790.61 -1175.041 791.4 -1174.29 C 790.503 -1172.993 789.609 -1171.707 788.725 -1170.445 C 773.497 -1148.788 764.135 -1134.465 760.813 -1127.994 C 759.519 -1125.406 759.303 -1124.543 759.26 -1121.954 C 759.26 -1121.539 759.266 -1121.165 759.281 -1120.82 C 754.117 -1117.802 748.785 -1115.549 743.522 -1113.787 Z M 745.177 -1176.272 C 760.246 -1176.272 772.629 -1176.858 783.397 -1178.157 C 760.428 -1175.18 734.038 -1175.039 710.747 -1177.736 C 720.616 -1176.731 731.845 -1176.272 745.177 -1176.272 Z" style="fill-opacity: 1; fill-rule: evenodd; stroke: none;" id="path12"/>
    <path d="M 725.521 -1263.976 C 740.95 -1254.2 749.382 -1254.056 761.761 -1263.401 C 764.811 -1265.557 768.219 -1266.707 770.731 -1266.419 C 775.97 -1265.926 782.005 -1256.839 786.9 -1242.531 C 780.691 -1234.855 776.69 -1225.319 775.863 -1214.89 C 761.003 -1212.815 713.584 -1213.826 703.813 -1216.246 C 697.713 -1217.827 696.995 -1218.546 696.995 -1222.572 C 697.175 -1228.753 703.096 -1250.462 706.863 -1257.506 C 708.298 -1260.525 710.989 -1264.119 712.604 -1265.557 C 716.551 -1269.007 717.806 -1268.864 725.521 -1263.976 Z" stroke="none" style=""/>
    <path d="M 696.379 -1213.05 C 703.735 -1208.385 723.11 -1204.976 744.459 -1204.976 C 757.75 -1204.976 767.713 -1205.608 775.84 -1207.097 C 776.633 -1196.329 780.807 -1186.5 787.305 -1178.67 C 775.639 -1177.011 762.102 -1176.272 745.177 -1176.272 C 716.293 -1176.272 697.276 -1178.425 680.592 -1183.628 C 654.04 -1191.701 653.322 -1203.183 678.797 -1211.973 C 691.894 -1216.458 691.356 -1216.279 696.379 -1213.05 Z" stroke="none" style="" fill="#000000"/>
    <path d="M 867.838 -1210.76 C 867.838 -1187.456 848.947 -1168.565 825.643 -1168.565 C 802.339 -1168.565 783.447 -1187.456 783.447 -1210.76 C 783.447 -1234.064 802.339 -1252.956 825.643 -1252.956 C 848.947 -1252.956 867.838 -1234.064 867.838 -1210.76 Z M 825.643 -1240.809 C 809.048 -1240.809 795.595 -1227.355 795.595 -1210.76 C 795.595 -1194.165 809.048 -1180.712 825.643 -1180.712 C 842.238 -1180.712 855.691 -1194.165 855.691 -1210.76 C 855.691 -1227.355 842.238 -1240.809 825.643 -1240.809 Z" style="stroke: rgb(0, 0, 0);"/>
    <path d="M 796.994 -1148.01 C 793.218 -1140.063 786.568 -1126.904 784.37 -1122.987 C 781.834 -1118.45 780.763 -1117.126 778.763 -1116.027 C 777.41 -1115.266 776.988 -1115.181 774.846 -1115.181 C 772.789 -1115.21 772.225 -1115.322 770.957 -1115.999 C 768.843 -1117.069 767.097 -1118.788 766.195 -1120.648 C 765.547 -1121.916 765.406 -1122.592 765.406 -1124.198 C 765.434 -1125.889 765.575 -1126.453 766.42 -1128.143 C 768.59 -1132.371 774.705 -1141.726 784.652 -1155.872 C 790.964 -1164.889 798.121 -1175.794 799.08 -1177.907 C 799.087 -1177.924 799.094 -1177.94 799.101 -1177.956 C 802.159 -1175.479 805.571 -1173.42 809.248 -1171.868 C 807.382 -1168.821 800.896 -1156.246 796.994 -1148.01 Z" fill="#000000" stroke="none" style=""/>
    <path d="M 827.07 -1210.811 C 826.919 -1210.595 826.791 -1210.417 826.668 -1210.238 C 824.704 -1207.348 822.741 -1204.458 820.779 -1201.569 C 818.954 -1198.881 817.126 -1196.195 815.297 -1193.511 C 815.235 -1193.426 815.141 -1193.37 815.036 -1193.359 C 812.453 -1193.382 809.872 -1193.409 807.29 -1193.443 C 807.262 -1193.443 807.232 -1193.452 807.176 -1193.46 C 807.197 -1193.514 807.221 -1193.567 807.248 -1193.618 C 809.05 -1196.41 810.851 -1199.203 812.652 -1201.994 C 814.25 -1204.468 815.848 -1206.941 817.448 -1209.413 C 819.221 -1212.161 820.993 -1214.91 822.763 -1217.661 C 823.025 -1218.067 823.297 -1218.465 823.545 -1218.878 C 823.608 -1218.989 823.628 -1219.12 823.598 -1219.244 C 823.121 -1220.765 822.634 -1222.283 822.149 -1223.8 C 821.94 -1224.45 821.723 -1225.096 821.528 -1225.75 C 821.465 -1225.96 821.361 -1226.024 821.146 -1226.023 C 819.524 -1226.016 817.911 -1226.018 816.293 -1226.018 C 815.986 -1226.018 815.985 -1226.018 815.985 -1226.322 C 815.985 -1228.311 815.985 -1230.299 815.979 -1232.289 C 815.979 -1232.51 816.052 -1232.56 816.26 -1232.56 C 819.517 -1232.554 822.775 -1232.554 826.033 -1232.56 C 826.19 -1232.58 826.336 -1232.48 826.376 -1232.328 C 828.094 -1228.007 829.812 -1223.687 831.53 -1219.37 C 833.535 -1214.334 835.539 -1209.298 837.543 -1204.261 C 838.165 -1202.698 838.792 -1201.136 839.408 -1199.569 C 839.481 -1199.378 839.558 -1199.341 839.751 -1199.401 C 841.458 -1199.929 843.169 -1200.442 844.876 -1200.971 C 845.091 -1201.038 845.169 -1200.993 845.236 -1200.78 C 845.818 -1198.95 846.412 -1197.124 847.001 -1195.297 C 847.021 -1195.234 847.037 -1195.17 847.061 -1195.082 C 846.938 -1195.037 846.824 -1194.987 846.706 -1194.954 C 842.825 -1193.724 838.946 -1192.493 835.069 -1191.262 C 834.884 -1191.204 834.829 -1191.267 834.767 -1191.423 C 833.583 -1194.423 832.396 -1197.423 831.206 -1200.421 C 830.042 -1203.356 828.878 -1206.292 827.713 -1209.228 C 827.538 -1209.669 827.366 -1210.112 827.192 -1210.553 C 827.164 -1210.628 827.126 -1210.694 827.07 -1210.811 Z" fill="#fa7e14" style=""/>
  </g>
</svg>