<?xml version="1.0" standalone="no"?>
<!DOCTYPE svg PUBLIC "-//W3C//DTD SVG 20010904//EN"
 "http://www.w3.org/TR/2001/REC-SVG-20010904/DTD/svg10.dtd">
<svg version="1.0" xmlns="http://www.w3.org/2000/svg"
 width="700.000000pt" height="700.000000pt" viewBox="0 0 700.000000 700.000000"
 preserveAspectRatio="xMidYMid meet">
<metadata>
Created by potrace 1.14, written by Peter Selinger 2001-2017
</metadata>
<g transform="translate(0.000000,700.000000) scale(0.100000,-0.100000)"
fill="#000000" stroke="none">
<path d="M1995 5855 c-61 -41 -83 -63 -143 -144 -94 -126 -165 -286 -249 -561
-19 -63 -36 -122 -38 -130 -2 -8 -20 -76 -39 -150 -19 -74 -38 -151 -41 -170
-3 -19 -8 -42 -10 -50 -11 -38 -17 -81 -22 -161 -7 -102 8 -139 65 -168 111
-56 286 -81 737 -106 490 -27 1328 -22 1593 10 l62 7 1 36 c0 21 2 46 5 57 2
11 6 34 8 50 31 216 149 484 304 690 l22 30 -21 55 c-75 198 -136 327 -212
450 -26 41 -73 101 -104 134 -136 141 -254 136 -483 -18 -219 -148 -306 -180
-490 -180 -110 0 -135 3 -210 28 -99 33 -220 92 -351 172 -90 54 -112 68 -196
115 -21 12 -63 24 -93 26 -48 4 -60 1 -95 -22z"/>
<path d="M5298 5425 c-2 -2 -22 -5 -45 -8 -139 -19 -320 -83 -451 -158 -581
-334 -823 -1022 -582 -1648 62 -161 170 -321 308 -458 l93 -92 -32 -53 c-67
-111 -262 -402 -429 -643 -239 -344 -428 -626 -476 -710 -6 -11 -25 -44 -43
-73 -51 -87 -60 -116 -57 -189 4 -79 20 -116 80 -177 64 -65 123 -89 216 -89
71 0 81 2 131 36 86 57 134 140 430 737 334 675 470 942 490 964 4 5 51 -5
106 -22 152 -49 253 -65 398 -66 155 -1 224 7 348 38 166 42 323 117 467 221
87 64 233 214 297 306 98 143 186 347 212 496 6 32 13 74 17 93 23 128 4 378
-41 533 -45 157 -137 344 -220 446 -230 283 -499 445 -840 505 -66 12 -367 20
-377 11z m264 -409 c256 -26 505 -178 657 -399 48 -71 105 -200 131 -297 17
-65 23 -113 23 -205 0 -66 -2 -133 -6 -150 -3 -16 -9 -43 -12 -60 -59 -303
-312 -579 -621 -680 -254 -82 -559 -39 -784 110 -332 221 -486 630 -380 1012
73 265 279 500 528 602 59 24 117 43 124 40 2 0 17 5 33 11 17 6 73 14 125 17
52 3 97 7 99 9 2 2 7 2 10 0 3 -2 36 -7 73 -10z"/>
<path d="M5195 4780 l-40 -5 0 -97 c0 -80 3 -98 15 -99 8 -1 47 -2 85 -3 l70
-1 32 -95 c17 -52 32 -102 32 -111 1 -8 -48 -92 -108 -185 -60 -93 -172 -265
-248 -383 -76 -118 -141 -219 -145 -225 -5 -9 26 -13 117 -14 l124 -3 103 152
c57 83 109 157 116 164 6 8 12 16 12 18 0 3 31 51 70 107 l69 103 19 -44 c10
-24 63 -156 117 -294 54 -137 103 -255 108 -262 6 -8 16 -9 30 -3 12 5 95 32
184 60 l162 52 -5 28 c-15 72 -50 157 -64 154 -8 -2 -48 -12 -88 -24 -41 -12
-75 -20 -76 -18 -1 2 -82 206 -181 453 -98 248 -189 478 -203 512 l-25 62
-121 3 c-67 2 -139 1 -161 -2z"/>
<path d="M1165 4230 c-274 -71 -632 -223 -725 -307 -95 -86 -126 -133 -134
-200 -20 -152 156 -298 509 -426 82 -29 290 -89 391 -113 l72 -17 7 -51 c5
-28 9 -53 10 -56 2 -9 17 -84 21 -110 13 -70 78 -301 120 -420 59 -169 141
-350 212 -465 17 -27 39 -63 48 -80 77 -136 282 -367 444 -500 163 -133 444
-290 662 -369 l97 -36 78 29 c110 41 270 112 346 154 l64 36 5 70 c6 83 32
143 143 327 80 133 460 705 610 919 46 66 120 172 164 236 l80 116 -34 33
c-25 24 -36 29 -39 19 -2 -8 -10 -36 -16 -64 -24 -97 -83 -206 -146 -271 -57
-59 -150 -124 -177 -124 -7 0 -17 -4 -23 -9 -10 -10 -117 -37 -183 -46 -61 -9
-225 -9 -291 -1 -182 24 -263 77 -335 220 -63 126 -144 188 -245 188 -103 -1
-178 -56 -241 -177 -50 -96 -68 -120 -117 -156 -42 -30 -141 -65 -217 -74 -70
-9 -241 -9 -295 -1 -25 4 -58 10 -74 12 -55 9 -151 46 -206 79 -153 93 -238
242 -276 480 -3 22 -8 44 -12 49 -3 5 9 6 29 2 45 -9 219 -33 294 -41 33 -3
69 -8 80 -10 32 -6 175 -18 227 -19 27 -1 48 -3 48 -6 0 -3 28 -5 63 -5 34 0
65 -4 68 -9 4 -4 15 -3 26 2 11 6 24 7 29 2 14 -13 194 -18 186 -5 -3 5 2 4
11 -4 14 -11 84 -14 370 -14 414 -1 517 3 536 17 11 8 13 8 7 -1 -7 -13 5 -18
17 -7 3 3 45 7 94 9 48 1 88 3 88 4 0 1 36 4 80 6 44 3 100 7 125 9 25 3 77 7
115 11 39 3 81 8 95 10 14 2 52 7 84 11 33 3 67 8 75 9 9 2 24 4 34 4 16 1 14
7 -13 44 -177 234 -286 502 -316 772 -7 61 -18 79 -43 70 -19 -7 -133 -23
-217 -31 -38 -3 -80 -8 -94 -10 -147 -24 -950 -24 -1160 1 -19 2 -64 6 -100
10 -36 4 -76 8 -90 10 -14 2 -45 6 -70 9 -38 5 -118 19 -245 41 -57 11 -255
65 -312 87 -63 23 -179 82 -203 104 -46 40 -122 48 -215 24z"/>
</g>
</svg>
